<svg width="63" height="54" viewBox="0 0 63 54" fill="none" xmlns="http://www.w3.org/2000/svg">
    <g clip-path="url(#clip0_3_15)">
        <g clip-path="url(#clip1_3_15)">
            <path fill-rule="evenodd" clip-rule="evenodd" d="M15.1874 15.7046C17.5019 15.0844 19.3161 14.5982 20.7973 14.3685C22.3088 14.1341 23.5876 14.1458 24.8016 14.6118C25.5365 14.8939 26.2225 15.2899 26.8343 15.7853C27.8449 16.6037 28.4944 17.7053 29.0471 19.1315C29.5887 20.5291 30.0748 22.3434 30.695 24.6579L30.7256 24.7721C31.3457 27.0865 31.8319 28.9007 32.0616 30.3819C32.2961 31.8934 32.2844 33.1721 31.8184 34.3861C31.5362 35.1211 31.1402 35.8071 30.6448 36.4189C29.8264 37.4294 28.7248 38.0789 27.2986 38.6317C25.901 39.1733 24.0867 39.6594 21.7723 40.2796L21.658 40.3102C19.3436 40.9303 17.5294 41.4165 16.0482 41.6462C14.5367 41.8806 13.258 41.8689 12.044 41.4029C11.309 41.1208 10.6231 40.7248 10.0113 40.2293C9.00068 39.411 8.35119 38.3094 7.79846 36.8832C7.25683 35.4856 6.77071 33.6713 6.15055 31.3568L6.11999 31.2427C5.49981 28.9282 5.01367 27.114 4.78393 25.6328C4.54949 24.1213 4.56118 22.8425 5.02719 21.6285C5.30931 20.8936 5.70535 20.2076 6.20078 19.5958C7.01913 18.5853 8.12071 17.9358 9.54694 17.383C10.9445 16.8414 12.7588 16.3553 15.0733 15.7351L15.1874 15.7046ZM17.6795 21.4528C17.5397 20.9308 17.0031 20.621 16.4811 20.7609C15.9591 20.9007 15.6493 21.4373 15.7892 21.9593L19.166 34.5619C19.3059 35.0839 19.8424 35.3937 20.3645 35.2538C20.8865 35.1139 21.1963 34.5774 21.0564 34.0554L17.6795 21.4528ZM24.0713 25.1431C23.9314 24.6211 23.3949 24.3113 22.8728 24.4512C22.3508 24.591 22.041 25.1276 22.1809 25.6496L24.207 33.2112C24.3469 33.7332 24.8835 34.043 25.4055 33.9031C25.9275 33.7632 26.2373 33.2266 26.0974 32.7046L24.0713 25.1431ZM14.6646 30.3651C14.5247 29.8431 13.9882 29.5333 13.4662 29.6731C12.9442 29.813 12.6344 30.3496 12.7742 30.8716L14.125 35.9126C14.2648 36.4346 14.8014 36.7444 15.3234 36.6046C15.8454 36.4647 16.1552 35.9281 16.0154 35.4061L14.6646 30.3651Z" fill="url(#paint0_linear_3_15)"/>
        </g>
        <g clip-path="url(#clip2_3_15)">
            <g filter="url(#filter0_b_3_15)">
                <path fill-rule="evenodd" clip-rule="evenodd" d="M39.0511 11.7419C42.7543 12.7341 45.6571 13.5119 47.8933 14.3785C50.1753 15.2629 51.9378 16.3021 53.2472 17.919C54.0398 18.8979 54.6735 19.9954 55.1249 21.1714C55.8705 23.1138 55.8892 25.1597 55.5141 27.5782C55.1465 29.948 54.3687 32.8509 53.3764 36.554L53.3275 36.7368C52.3352 40.4399 51.5575 43.3427 50.6909 45.5788C49.8065 47.8607 48.7673 49.6233 47.1504 50.9326C46.1715 51.7253 45.074 52.359 43.8981 52.8104C41.9557 53.556 39.9097 53.5747 37.4912 53.1996C35.1214 52.832 32.2185 52.0542 28.5154 51.0619L28.3327 51.0129C24.6295 50.0207 21.7268 49.2429 19.4906 48.3763C17.2087 47.492 15.4461 46.4528 14.1368 44.8359C13.3441 43.857 12.7104 42.7594 12.259 41.5835C11.5134 39.6411 11.4947 37.5951 11.8698 35.1767C12.2374 32.8068 13.0152 29.904 14.0075 26.2008L14.0564 26.0183C15.0487 22.3151 15.8265 19.4123 16.6931 17.1761C17.5774 14.8941 18.6166 13.1316 20.2335 11.8222C21.2124 11.0296 22.31 10.3959 23.4859 9.94451C25.4283 9.19889 27.4743 9.1802 29.8927 9.5553C32.2626 9.92288 35.1654 10.7007 38.8686 11.693L39.0511 11.7419Z" fill="#29ACD6" fill-opacity="0.35"/>
                <path fill-rule="evenodd" clip-rule="evenodd" d="M39.0511 11.7419C42.7543 12.7341 45.6571 13.5119 47.8933 14.3785C50.1753 15.2629 51.9378 16.3021 53.2472 17.919C54.0398 18.8979 54.6735 19.9954 55.1249 21.1714C55.8705 23.1138 55.8892 25.1597 55.5141 27.5782C55.1465 29.948 54.3687 32.8509 53.3764 36.554L53.3275 36.7368C52.3352 40.4399 51.5575 43.3427 50.6909 45.5788C49.8065 47.8607 48.7673 49.6233 47.1504 50.9326C46.1715 51.7253 45.074 52.359 43.8981 52.8104C41.9557 53.556 39.9097 53.5747 37.4912 53.1996C35.1214 52.832 32.2185 52.0542 28.5154 51.0619L28.3327 51.0129C24.6295 50.0207 21.7268 49.2429 19.4906 48.3763C17.2087 47.492 15.4461 46.4528 14.1368 44.8359C13.3441 43.857 12.7104 42.7594 12.259 41.5835C11.5134 39.6411 11.4947 37.5951 11.8698 35.1767C12.2374 32.8068 13.0152 29.904 14.0075 26.2008L14.0564 26.0183C15.0487 22.3151 15.8265 19.4123 16.6931 17.1761C17.5774 14.8941 18.6166 13.1316 20.2335 11.8222C21.2124 11.0296 22.31 10.3959 23.4859 9.94451C25.4283 9.19889 27.4743 9.1802 29.8927 9.5553C32.2626 9.92288 35.1654 10.7007 38.8686 11.693L39.0511 11.7419Z" stroke="url(#paint1_linear_3_15)" stroke-width="0.626263" stroke-linecap="round"/>
            </g>
            <g filter="url(#filter1_d_3_15)">
                <path fill-rule="evenodd" clip-rule="evenodd" d="M37.9058 21.7006C38.1296 20.8654 37.6339 20.0069 36.7987 19.7831C35.9634 19.5593 35.1049 20.0549 34.8811 20.8902L29.4782 41.0543C29.2544 41.8895 29.75 42.748 30.5853 42.9718C31.4205 43.1956 32.279 42.6999 32.5028 41.8647L37.9058 21.7006ZM43.8102 31.9274C44.034 31.0922 43.5384 30.2337 42.7031 30.0099C41.8679 29.7861 41.0094 30.2818 40.7856 31.117L37.5438 43.2155C37.32 44.0507 37.8157 44.9092 38.6509 45.133C39.4861 45.3568 40.3446 44.8611 40.5684 44.0259L43.8102 31.9274ZM26.5983 31.6379C26.8221 30.8027 26.3265 29.9442 25.4913 29.7204C24.656 29.4966 23.7975 29.9922 23.5737 30.8274L21.4125 38.8931C21.1887 39.7283 21.6844 40.5868 22.5196 40.8106C23.3549 41.0344 24.2134 40.5388 24.4372 39.7035L26.5983 31.6379Z" fill="url(#paint2_linear_3_15)"/>
            </g>
        </g>
    </g>
    <defs>
        <filter id="filter0_b_3_15" x="-12.6832" y="-14.9977" width="92.7502" height="92.7502" filterUnits="userSpaceOnUse" color-interpolation-filters="sRGB">
            <feFlood flood-opacity="0" result="BackgroundImageFix"/>
            <feGaussianBlur in="BackgroundImageFix" stdDeviation="12"/>
            <feComposite in2="SourceAlpha" operator="in" result="effect1_backgroundBlur_3_15"/>
            <feBlend mode="normal" in="SourceGraphic" in2="effect1_backgroundBlur_3_15" result="shape"/>
        </filter>
        <filter id="filter1_d_3_15" x="18.3588" y="16.7293" width="38.5051" height="41.4574" filterUnits="userSpaceOnUse" color-interpolation-filters="sRGB">
            <feFlood flood-opacity="0" result="BackgroundImageFix"/>
            <feColorMatrix in="SourceAlpha" type="matrix" values="0 0 0 0 0 0 0 0 0 0 0 0 0 0 0 0 0 0 127 0" result="hardAlpha"/>
            <feOffset dx="5" dy="5"/>
            <feGaussianBlur stdDeviation="4"/>
            <feColorMatrix type="matrix" values="0 0 0 0 0.176471 0 0 0 0 0.556863 0 0 0 0 0.678431 0 0 0 0.5 0"/>
            <feBlend mode="normal" in2="BackgroundImageFix" result="effect1_dropShadow_3_15"/>
            <feBlend mode="normal" in="SourceGraphic" in2="effect1_dropShadow_3_15" result="shape"/>
        </filter>
        <linearGradient id="paint0_linear_3_15" x1="9.42769" y1="43.5873" x2="28.0881" y2="12.8341" gradientUnits="userSpaceOnUse">
            <stop stop-color="#207894"/>
            <stop offset="1" stop-color="#2ECDFF"/>
        </linearGradient>
        <linearGradient id="paint1_linear_3_15" x1="19.2999" y1="6.44955" x2="48.1094" y2="56.2907" gradientUnits="userSpaceOnUse">
            <stop stop-color="white" stop-opacity="0.25"/>
            <stop offset="1" stop-color="white" stop-opacity="0"/>
        </linearGradient>
        <linearGradient id="paint2_linear_3_15" x1="29.4229" y1="47.9552" x2="67.5275" y2="30.9904" gradientUnits="userSpaceOnUse">
            <stop stop-color="white"/>
            <stop offset="1" stop-color="white" stop-opacity="0.2"/>
        </linearGradient>
        <clipPath id="clip0_3_15">
            <rect width="62" height="53.8586" fill="white" transform="translate(0.5 0.0707092)"/>
        </clipPath>
        <clipPath id="clip1_3_15">
            <rect width="31.3131" height="31.3131" fill="white" transform="translate(-0.752525 16.9365) rotate(-15)"/>
        </clipPath>
        <clipPath id="clip2_3_15">
            <rect width="50.101" height="50.101" fill="white" transform="translate(15.9786 0.69696) rotate(15)"/>
        </clipPath>
    </defs>
</svg>
