<svg width="58" height="52" viewBox="0 0 58 52" fill="none" xmlns="http://www.w3.org/2000/svg">
    <g filter="url(#filter0_b_29_11)">
        <path fill-rule="evenodd" clip-rule="evenodd" d="M15.1849 10.3254C8.74011 14.5234 5.51771 16.6224 4.25208 19.723C4.15056 19.9717 4.05924 20.2237 3.97831 20.4784C2.96948 23.6537 4.20033 27.05 6.66203 33.8426C9.12372 40.6352 10.3546 44.0314 13.2525 46.0687C13.485 46.2321 13.7241 46.3879 13.9693 46.5356C17.0259 48.377 21.009 48.377 28.9752 48.377C36.9414 48.377 40.9246 48.377 43.9812 46.5356C44.2264 46.3879 44.4655 46.2321 44.698 46.0687C47.5959 44.0314 48.8267 40.6352 51.2884 33.8426C53.7501 27.05 54.981 23.6537 53.9722 20.4784C53.8912 20.2237 53.7999 19.9717 53.6984 19.723C52.4328 16.6224 49.2104 14.5234 42.7656 10.3254C36.3208 6.12736 33.0983 4.02832 29.4182 3.90728C29.123 3.89757 28.8275 3.89757 28.5323 3.90728C24.8521 4.02832 21.6297 6.12734 15.1849 10.3254Z" fill="#29ACD6" fill-opacity="0.35"/>
        <path fill-rule="evenodd" clip-rule="evenodd" d="M15.1849 10.3254C8.74011 14.5234 5.51771 16.6224 4.25208 19.723C4.15056 19.9717 4.05924 20.2237 3.97831 20.4784C2.96948 23.6537 4.20033 27.05 6.66203 33.8426C9.12372 40.6352 10.3546 44.0314 13.2525 46.0687C13.485 46.2321 13.7241 46.3879 13.9693 46.5356C17.0259 48.377 21.009 48.377 28.9752 48.377C36.9414 48.377 40.9246 48.377 43.9812 46.5356C44.2264 46.3879 44.4655 46.2321 44.698 46.0687C47.5959 44.0314 48.8267 40.6352 51.2884 33.8426C53.7501 27.05 54.981 23.6537 53.9722 20.4784C53.8912 20.2237 53.7999 19.9717 53.6984 19.723C52.4328 16.6224 49.2104 14.5234 42.7656 10.3254C36.3208 6.12736 33.0983 4.02832 29.4182 3.90728C29.123 3.89757 28.8275 3.89757 28.5323 3.90728C24.8521 4.02832 21.6297 6.12734 15.1849 10.3254Z" stroke="url(#paint0_linear_29_11)" stroke-linecap="round"/>
    </g>
    <path d="M36.8294 48.2586V40.3426C36.8294 36.4536 33.313 33.3009 28.9752 33.3009C24.6375 33.3009 21.1211 36.4536 21.1211 40.3426V48.2586C23.2307 48.377 25.7832 48.377 28.9752 48.377C32.1672 48.377 34.7197 48.377 36.8294 48.2586Z" fill="url(#paint1_linear_29_11)"/>
    <defs>
        <filter id="filter0_b_29_11" x="-20.875" y="-20.6" width="99.7005" height="93.4771" filterUnits="userSpaceOnUse" color-interpolation-filters="sRGB">
            <feFlood flood-opacity="0" result="BackgroundImageFix"/>
            <feGaussianBlur in="BackgroundImageFix" stdDeviation="12"/>
            <feComposite in2="SourceAlpha" operator="in" result="effect1_backgroundBlur_29_11"/>
            <feBlend mode="normal" in="SourceGraphic" in2="effect1_backgroundBlur_29_11" result="shape"/>
        </filter>
        <linearGradient id="paint0_linear_29_11" x1="3.625" y1="3.89999" x2="47.7515" y2="54.1499" gradientUnits="userSpaceOnUse">
            <stop stop-color="white" stop-opacity="0.25"/>
            <stop offset="1" stop-color="white" stop-opacity="0"/>
        </linearGradient>
        <linearGradient id="paint1_linear_29_11" x1="29.1075" y1="51.5889" x2="49.9144" y2="30.3376" gradientUnits="userSpaceOnUse">
            <stop stop-color="white"/>
            <stop offset="1" stop-color="white" stop-opacity="0.2"/>
        </linearGradient>
    </defs>
</svg>
