<svg width="50" height="50" viewBox="0 0 50 50" fill="none" xmlns="http://www.w3.org/2000/svg">
    <g filter="url(#filter0_b_3_34)">
        <path fill-rule="evenodd" clip-rule="evenodd" d="M8.57462 13.8956C6.625 16.579 6.625 20.4068 6.625 28.0625C6.625 35.7182 6.625 39.5461 8.57462 42.2295C9.20426 43.0961 9.96639 43.8583 10.833 44.4879C13.5164 46.4375 17.3443 46.4375 25 46.4375C32.6557 46.4375 36.4836 46.4375 39.167 44.4879C40.0336 43.8583 40.7957 43.0961 41.4254 42.2295C43.375 39.5461 43.375 35.7182 43.375 28.0625C43.375 20.4068 43.375 16.579 41.4254 13.8956C40.7957 13.0289 40.0336 12.2668 39.167 11.6371C39.12 11.6031 39.0728 11.5696 39.0251 11.5366C36.3485 9.68753 32.5218 9.68753 25 9.68753C17.4784 9.68753 13.6517 9.68753 10.9751 11.5365C10.9274 11.5694 10.88 11.603 10.833 11.6371C9.96639 12.2668 9.20426 13.0289 8.57462 13.8956Z" fill="url(#paint0_linear_3_34)"/>
        <path d="M24.9999 3.56253C28.8 3.56253 30.7001 3.56253 32.2378 4.06216C34.9288 4.93653 37.1166 6.88065 38.3105 9.40402C37.0442 8.86016 35.6207 8.56477 33.9872 8.39557C31.6768 8.15625 28.7744 8.15627 25.0874 8.15628H24.9125C21.2256 8.15627 18.3232 8.15625 16.0129 8.39554C14.3793 8.56474 12.9556 8.86013 11.6893 9.40403C12.8833 6.88066 15.071 4.93653 17.762 4.06216C19.2997 3.56253 21.1998 3.56253 24.9999 3.56253Z" fill="url(#paint1_linear_3_34)"/>
        <path d="M10.653 11.3894L10.833 11.6371L10.653 11.3894C9.76038 12.0379 8.97539 12.8229 8.32686 13.7155C7.3078 15.1182 6.81076 16.806 6.56423 19.0814C6.31875 21.3473 6.31875 24.2316 6.31875 28.043V28.0625V28.0821C6.31875 31.8934 6.31875 34.7778 6.56423 37.0436C6.81076 39.319 7.3078 41.0069 8.32686 42.4095C8.97539 43.3021 9.76038 44.0871 10.653 44.7357C12.0556 45.7547 13.7435 46.2518 16.0189 46.4983C18.2847 46.7438 21.1691 46.7438 24.9805 46.7438H25H25.0195C28.8309 46.7438 31.7153 46.7438 33.9811 46.4983C36.2565 46.2518 37.9444 45.7547 39.347 44.7357C40.2396 44.0871 41.0246 43.3021 41.6731 42.4095C42.6922 41.0069 43.1892 39.319 43.4358 37.0436C43.6813 34.7778 43.6813 31.8934 43.6813 28.082V28.0625V28.043C43.6813 24.2317 43.6813 21.3473 43.4358 19.0814C43.1892 16.806 42.6922 15.1182 41.6731 13.7155C41.0246 12.8229 40.2396 12.0379 39.347 11.3894C39.2981 11.3539 39.2488 11.319 39.1992 11.2847C37.8008 10.3186 36.1167 9.84769 33.8611 9.61405C31.6138 9.38128 28.7638 9.38128 25.0184 9.38128H25H24.9816C21.2363 9.38128 18.3863 9.38128 16.1392 9.61403C13.8835 9.84765 12.1995 10.3185 10.8011 11.2845C10.7513 11.3188 10.702 11.3538 10.653 11.3894ZM38.1897 9.68541L38.9337 10.005L38.5874 9.27303C37.3576 6.67395 35.1042 4.67151 32.3324 3.7709C30.7485 3.25624 28.8044 3.25625 25.0813 3.25628L24.9999 3.25628L24.9185 3.25628C21.1954 3.25625 19.2514 3.25624 17.6674 3.7709C14.8956 4.67151 12.6423 6.67396 11.4125 9.27304L11.0661 10.005L11.8101 9.68542C13.0374 9.15832 14.4274 8.86765 16.0444 8.70016C18.3354 8.46288 21.2194 8.46252 24.9125 8.46253H25.0874C28.7805 8.46252 31.6646 8.46288 33.9556 8.70019C35.5726 8.86767 36.9625 9.15834 38.1897 9.68541Z" stroke="url(#paint2_linear_3_34)" stroke-width="0.6125" stroke-linecap="round"/>
    </g>
    <g filter="url(#filter1_d_3_34)">
        <path d="M26.5312 21.9375C26.5312 21.0918 25.8457 20.4063 25 20.4063C24.1543 20.4063 23.4688 21.0918 23.4688 21.9375V26.5313H18.875C18.0293 26.5313 17.3438 27.2168 17.3438 28.0625C17.3438 28.9082 18.0293 29.5938 18.875 29.5938H23.4688V34.1875C23.4688 35.0332 24.1543 35.7188 25 35.7188C25.8457 35.7188 26.5312 35.0332 26.5312 34.1875V29.5938H31.125C31.9707 29.5938 32.6562 28.9082 32.6562 28.0625C32.6562 27.2168 31.9707 26.5313 31.125 26.5313H26.5312V21.9375Z" fill="url(#paint3_linear_3_34)"/>
    </g>
    <defs>
        <filter id="filter0_b_3_34" x="-8.6875" y="-11.75" width="67.375" height="73.5" filterUnits="userSpaceOnUse" color-interpolation-filters="sRGB">
            <feFlood flood-opacity="0" result="BackgroundImageFix"/>
            <feGaussianBlur in="BackgroundImageFix" stdDeviation="7.35"/>
            <feComposite in2="SourceAlpha" operator="in" result="effect1_backgroundBlur_3_34"/>
            <feBlend mode="normal" in="SourceGraphic" in2="effect1_backgroundBlur_3_34" result="shape"/>
        </filter>
        <filter id="filter1_d_3_34" x="15.5062" y="18.5688" width="25.1125" height="25.1125" filterUnits="userSpaceOnUse" color-interpolation-filters="sRGB">
            <feFlood flood-opacity="0" result="BackgroundImageFix"/>
            <feColorMatrix in="SourceAlpha" type="matrix" values="0 0 0 0 0 0 0 0 0 0 0 0 0 0 0 0 0 0 127 0" result="hardAlpha"/>
            <feOffset dx="3.0625" dy="3.0625"/>
            <feGaussianBlur stdDeviation="2.45"/>
            <feColorMatrix type="matrix" values="0 0 0 0 0.176471 0 0 0 0 0.556863 0 0 0 0 0.678431 0 0 0 0.5 0"/>
            <feBlend mode="normal" in2="BackgroundImageFix" result="effect1_dropShadow_3_34"/>
            <feBlend mode="normal" in="SourceGraphic" in2="effect1_dropShadow_3_34" result="shape"/>
        </filter>
        <linearGradient id="paint0_linear_3_34" x1="6.625" y1="46.4375" x2="49.612" y2="11.1633" gradientUnits="userSpaceOnUse">
            <stop stop-color="#207894"/>
            <stop offset="1" stop-color="#2ECDFF"/>
        </linearGradient>
        <linearGradient id="paint1_linear_3_34" x1="6.625" y1="46.4375" x2="49.612" y2="11.1633" gradientUnits="userSpaceOnUse">
            <stop stop-color="#207894"/>
            <stop offset="1" stop-color="#2ECDFF"/>
        </linearGradient>
        <linearGradient id="paint2_linear_3_34" x1="6.625" y1="3.56253" x2="49.0105" y2="39.8561" gradientUnits="userSpaceOnUse">
            <stop stop-color="white" stop-opacity="0.25"/>
            <stop offset="1" stop-color="white" stop-opacity="0"/>
        </linearGradient>
        <linearGradient id="paint3_linear_3_34" x1="25.1289" y1="38.981" x2="46.2626" y2="18.2648" gradientUnits="userSpaceOnUse">
            <stop stop-color="white"/>
            <stop offset="1" stop-color="white" stop-opacity="0.2"/>
        </linearGradient>
    </defs>
</svg>
